<svg id="visual" viewBox="0 0 800 600" width="800" height="600" xmlns="http://www.w3.org/2000/svg" xmlns:xlink="http://www.w3.org/1999/xlink" version="1.1"><rect x="0" y="0" width="800" height="600" fill="#222222"></rect><defs><linearGradient id="grad1_0" x1="25%" y1="0%" x2="100%" y2="100%"><stop offset="23.333333333333336%" stop-color="#222222" stop-opacity="1"></stop><stop offset="76.66666666666666%" stop-color="#222222" stop-opacity="1"></stop></linearGradient></defs><defs><linearGradient id="grad2_0" x1="0%" y1="0%" x2="75%" y2="100%"><stop offset="23.333333333333336%" stop-color="#222222" stop-opacity="1"></stop><stop offset="76.66666666666666%" stop-color="#222222" stop-opacity="1"></stop></linearGradient></defs><g transform="translate(800, 0)"><path d="M0 225C-28.5 221.4 -57 217.9 -86.1 207.9C-115.2 197.8 -144.9 181.4 -156.3 156.3C-167.6 131.2 -160.7 97.5 -169.1 70C-177.5 42.6 -201.2 21.3 -225 0L0 0Z" fill="#6486FF"></path></g><g transform="translate(0, 600)"><path d="M0 -225C33.7 -226.5 67.4 -228 86.1 -207.9C104.8 -187.8 108.6 -146 121.6 -121.6C134.6 -97.2 156.8 -90.1 175.5 -72.7C194.3 -55.3 209.6 -27.7 225 0L0 0Z" fill="#6486FF"></path></g></svg>